<?xml version="1.0" encoding="utf-8"?>
<!-- Generator: Adobe Illustrator 23.0.2, SVG Export Plug-In . SVG Version: 6.00 Build 0)  -->
<svg version="1.1" id="Layer_1" xmlns="http://www.w3.org/2000/svg" xmlns:xlink="http://www.w3.org/1999/xlink" x="0px" y="0px"
	 width="210px" height="40px" viewBox="0 0 210 40" style="enable-background:new 0 0 210 40;" xml:space="preserve">
<style type="text/css">
	.st0{fill:#2A5DA8;}
	.st1{fill:#FFFFFF;}
</style>
<title>logo-black</title>
<path class="st0" d="M202,28.1c0,4.7-3.8,8.5-8.4,8.5L14.7,39c-4.7,0-8.5-3.8-8.5-8.4L5,9.5C5,4.8,8.8,1,13.4,1l183.1,1.5
	c4.7,0,8.4,3.8,8.4,8.5L202,28.1z"/>
<path class="st1" d="M54.5,14v9.5c0,0.2,0.1,0.4,0.3,0.6c0.2,0.2,0.4,0.1,0.6,0.1h1.8c0.2,0,0.4,0.1,0.6-0.1
	c0.2-0.1,0.2-0.3,0.2-0.6v-0.7c0,0,0-0.5,0.7-0.6h3.1c0,0,0.8,0.1,0.8,0.6v2.8c0,0.4-0.1,0.7-0.4,1c-0.3,0.3-0.6,0.4-1,0.4h-9.7
	c-0.4,0-0.7-0.1-1-0.4c-0.3-0.3-0.4-0.6-0.4-1V14c0,0-0.1-0.8,0.8-0.8h3C53.7,13.2,54.5,13.1,54.5,14"/>
<path class="st1" d="M32.9,13.1l13.8,0c0,0,1.1,0.1,1.2,0.8l0,1.5c0,0-0.1,0.7-1.1,0.7l-9.1,0c0,0-0.6,0-0.7,0.6V18
	c0,0,0.1,0.6,0.8,0.6h8.9c0,0,1.2,0.2,1.2,1.4l0,5.8c0,0-0.1,1.1-1.2,1.3h-14c0,0-0.9-0.1-1-0.8v-1.4c0,0,0.1-0.8,1-0.8l9.1,0
	c0,0,0.6,0,0.7-0.6v-1.1c0,0-0.1-0.6-0.7-0.6l-8.8,0c0,0-1.2-0.1-1.4-1.3v-5.8C31.6,14.5,31.6,13.3,32.9,13.1"/>
<path class="st1" d="M14.6,13.2h13.8c0,0,1.1,0.1,1.2,0.8v1.5c0,0-0.1,0.7-1,0.7l-9.1,0c0,0-0.6,0-0.7,0.6V18c0,0,0.1,0.6,0.8,0.6
	h8.9c0,0,1.2,0.2,1.2,1.4l0,5.8c0,0-0.1,1.1-1.2,1.3h-14c0,0-0.9-0.1-1-0.8v-1.4c0,0,0.1-0.8,1-0.8l9.1,0c0,0,0.6,0,0.7-0.6v-1.1
	c0,0-0.1-0.6-0.7-0.6l-8.8,0c0,0-1.2-0.1-1.4-1.3v-5.7C13.3,14.6,13.3,13.3,14.6,13.2"/>
<path class="st1" d="M78.3,22h-2.8c-1,0-0.8,0.8-0.8,0.8v0.6c0,0.2-0.1,0.4-0.3,0.5c-0.1,0.1-0.3,0.2-0.5,0.2h-4
	c-0.2,0-0.4-0.1-0.5-0.2c-0.2-0.1-0.3-0.3-0.3-0.5v-6.3c0-0.2,0.1-0.4,0.3-0.6c0.1-0.1,0.3-0.2,0.5-0.2h4c0.5,0,0.8,0.3,0.8,0.8v0.5
	c0,0-0.2,0.8,0.8,0.7h2.9c0,0,0.9,0,0.9-0.7v-3c0-0.4-0.1-0.7-0.4-1c-0.3-0.2-0.6-0.4-1-0.4h-12c-0.4,0-0.7,0.1-0.9,0.4
	c-0.3,0.3-0.4,0.6-0.4,1v11.2c0,0.4,0.1,0.7,0.4,1c0.3,0.3,0.6,0.4,0.9,0.4h12c0.4,0,0.7-0.1,1-0.4c0.2-0.3,0.4-0.6,0.4-1v-2.7
	C79.3,22.1,78.3,22,78.3,22"/>
<path class="st1" d="M181.7,16.3h6l-2.3,2.4l2.8,2.7l5.5-5.7c0.2-0.2,0.3-0.5,0.3-0.8c0-0.4-0.1-0.8-0.5-1.1
	c-0.3-0.3-0.7-0.5-1.2-0.5h-10.7c-0.4,0-0.7,0-0.9,0.3c-0.3,0.3-0.3,0.8-0.3,1.2c0,0.4,0.1,1,0.4,1.2
	C181.1,16.3,181.2,16.3,181.7,16.3"/>
<path class="st1" d="M95.6,13.6c-0.3-0.2-0.6-0.4-1-0.4h-12c-0.4,0-0.7,0.1-1,0.4c-0.3,0.3-0.4,0.6-0.4,1v11.2c0,0.4,0.1,0.7,0.4,1
	c0.3,0.3,0.6,0.4,1,0.4h12c0.4,0,0.7-0.1,1-0.4c0.3-0.3,0.4-0.6,0.4-1V14.6C96,14.2,95.8,13.9,95.6,13.6 M91.4,23.3
	c0,0.2-0.1,0.4-0.2,0.5c-0.2,0.1-0.3,0.2-0.5,0.2h-4c-0.2,0-0.4-0.1-0.5-0.2c-0.1-0.1-0.2-0.3-0.2-0.5v-6.3c0-0.2,0.1-0.4,0.2-0.6
	c0.1-0.1,0.3-0.2,0.5-0.2h4c0.2,0,0.4,0.1,0.5,0.2c0.2,0.2,0.2,0.4,0.2,0.6V23.3z"/>
<path class="st1" d="M98.5,16.3c0.5,0,0.8,0.2,0.8,0.6v9c0,0.4,0.1,0.7,0.4,0.9c0.2,0.2,0.6,0.4,0.9,0.4h1.9c0.4,0,0.7-0.1,1-0.4
	c0.3-0.3,0.4-0.6,0.4-0.9v-8.8c0-0.6,0.3-0.8,0.8-0.8h2.6c0.5,0,0.8,0.3,0.8,0.8v8.8c0,0.4,0.1,0.7,0.4,0.9c0.3,0.2,0.6,0.4,1,0.4
	h1.9c0.4,0,0.7-0.1,1-0.4c0.3-0.3,0.4-0.6,0.4-0.9v-9c0.1-0.4,0.3-0.6,0.8-0.6h2.5c0.5,0,0.8,0.3,0.8,0.8v8.8c0,0.4,0.1,0.7,0.4,0.9
	c0.3,0.2,0.6,0.4,1,0.4h1.9c0.4,0,0.7-0.1,0.9-0.4c0.2-0.3,0.4-0.6,0.4-0.9V14.6c0-0.4-0.1-0.7-0.4-1c-0.3-0.2-0.6-0.4-1-0.4h-8.3
	c-0.3,0-0.7,0.1-0.9,0.4c-0.3,0.2-0.4,0.5-0.5,0.8c0-0.3-0.2-0.6-0.4-0.8c-0.3-0.2-0.5-0.4-0.9-0.4h-6c-0.4,0-0.7,0.1-0.9,0.4
	c-0.3,0.2-0.4,0.5-0.4,0.8c0-0.3-0.2-0.6-0.4-0.8c-0.3-0.2-0.6-0.4-0.9-0.4h-1.8c0,0-0.7,0-0.7,0.7v1.5
	C97.8,15.4,97.8,16.2,98.5,16.3"/>
<path class="st1" d="M123.9,16.3c0.5,0,0.8,0.2,0.8,0.6v9c0,0.4,0.1,0.7,0.4,0.9c0.3,0.2,0.6,0.4,0.9,0.4h1.9c0.4,0,0.7-0.1,1-0.4
	c0.3-0.3,0.4-0.6,0.4-0.9v-8.8c0-0.6,0.3-0.8,0.8-0.8h2.5c0.5,0,0.8,0.3,0.8,0.8v8.8c0,0.4,0.1,0.7,0.4,0.9c0.3,0.2,0.6,0.4,0.9,0.4
	h1.9c0.3,0,0.7-0.1,1-0.4c0.3-0.3,0.4-0.6,0.4-0.9v-9c0.1-0.4,0.3-0.6,0.8-0.6h2.5c0.5,0,0.8,0.3,0.8,0.8v8.8c0,0.4,0.1,0.7,0.4,0.9
	c0.3,0.2,0.6,0.4,1,0.4h1.9c0.4,0,0.7-0.1,0.9-0.4c0.3-0.3,0.4-0.6,0.4-0.9V14.6c0-0.4-0.1-0.7-0.4-1c-0.3-0.2-0.6-0.4-0.9-0.4H137
	c-0.3,0-0.6,0.1-0.9,0.4c-0.2,0.2-0.4,0.5-0.4,0.8c0-0.3-0.2-0.6-0.4-0.8c-0.2-0.2-0.6-0.4-0.9-0.4h-6c-0.3,0-0.7,0.1-0.9,0.4
	c-0.2,0.2-0.4,0.5-0.4,0.8c0-0.3-0.2-0.6-0.4-0.8c-0.3-0.2-0.6-0.4-0.9-0.4h-1.8c0,0-0.7,0-0.7,0.7v1.5
	C123.2,15.4,123.2,16.2,123.9,16.3"/>
<path class="st1" d="M192.6,24.1h-7l1.1-1.1l-2.8,0.1l0-2.8l-4.3,4.4c-0.2,0.3-0.3,0.5-0.3,0.8c0,0.4,0.1,0.7,0.4,1.1
	c0.3,0.3,0.7,0.5,1.1,0.5h11.6c0.4,0,0.8,0,1.1-0.3c0.3-0.3,0.3-0.8,0.3-1.2v-0.5C193.8,23.9,192.6,24.1,192.6,24.1"/>
<path class="st1" d="M162.7,22.4h-3c-0.8,0-0.6,0.7-0.6,0.7v0.6c-0.1,0.3,0,0.2-0.2,0.4c-0.1,0.2-0.4,0.1-0.6,0.1h-4
	c-0.2,0-0.4-0.1-0.6-0.2c-0.2-0.1-0.2-0.3-0.2-0.5V21h8.7c0.4,0,0.7-0.2,1-0.4c0.3-0.3,0.4-0.6,0.4-1v-5c0-0.4-0.1-0.7-0.4-1
	c-0.3-0.3-0.6-0.4-1-0.4h-12c-0.3,0-0.7,0.1-0.9,0.4c-0.3,0.3-0.4,0.6-0.4,1v11.2c0,0.4,0.1,0.7,0.4,1c0.3,0.3,0.6,0.4,0.9,0.4h12
	c0.4,0,0.7-0.1,1-0.4c0.3-0.3,0.4-0.6,0.4-1v-2.7C163.6,22.4,162.7,22.4,162.7,22.4 M153.5,17.1c0-0.6,0.3-0.8,0.8-0.8h4
	c0.5,0,0.8,0.3,0.8,0.8v0.5c0,0.6-0.3,0.8-0.8,0.8h-4c-0.6,0-0.8-0.3-0.8-0.8V17.1z"/>
<polygon class="st1" points="184.4,22.5 184.5,16.6 190.3,22.2 "/>
<path class="st1" d="M195.6,8.7c0.4,0,0.8,0.1,1.2,0.3c0.4,0.2,0.7,0.5,0.9,0.9c0.2,0.4,0.3,0.8,0.3,1.2c0,0.4-0.1,0.8-0.3,1.2
	c-0.2,0.4-0.5,0.7-0.9,0.9c-0.4,0.2-0.7,0.3-1.2,0.3c-0.4,0-0.8-0.1-1.2-0.3c-0.4-0.2-0.7-0.5-0.9-0.9c-0.2-0.4-0.3-0.8-0.3-1.2
	c0-0.4,0.1-0.8,0.3-1.2c0.2-0.4,0.5-0.7,0.9-0.9C194.8,8.8,195.2,8.7,195.6,8.7 M195.6,9.1c-0.3,0-0.7,0.1-1,0.3
	c-0.3,0.2-0.6,0.4-0.7,0.7c-0.2,0.3-0.3,0.6-0.3,1c0,0.4,0.1,0.7,0.3,1c0.2,0.3,0.4,0.6,0.7,0.7c0.3,0.2,0.6,0.3,1,0.3
	c0.4,0,0.7-0.1,1-0.3c0.3-0.2,0.6-0.4,0.7-0.7c0.2-0.3,0.2-0.6,0.2-1c0-0.3-0.1-0.7-0.2-1c-0.2-0.3-0.4-0.6-0.7-0.7
	C196.2,9.2,195.9,9.1,195.6,9.1 M194.5,12.4V9.8h0.9c0.3,0,0.5,0,0.7,0c0.1,0.1,0.3,0.2,0.3,0.3c0.1,0.1,0.1,0.2,0.1,0.4
	c0,0.2-0.1,0.4-0.2,0.5c-0.1,0.2-0.3,0.2-0.5,0.2c0.1,0,0.2,0.1,0.2,0.1c0.1,0.1,0.2,0.3,0.3,0.5l0.3,0.5h-0.5L196,12
	c-0.2-0.3-0.3-0.5-0.4-0.6c-0.1-0.1-0.2-0.1-0.3-0.1H195v1.1H194.5z M195,10.9h0.5c0.2,0,0.4,0,0.5-0.1c0.1-0.1,0.1-0.2,0.1-0.3
	c0-0.1,0-0.1,0-0.2c0,0-0.1-0.1-0.2-0.1c-0.1,0-0.2,0-0.4,0H195V10.9z"/>
<path class="st1" d="M165.8,16.3c0.5,0,0.8,0.2,0.8,0.6v9c0,0.4,0.1,0.7,0.4,0.9c0.3,0.2,0.6,0.4,0.9,0.4h1.9c0.4,0,0.7-0.1,1-0.4
	c0.3-0.3,0.4-0.6,0.4-0.9v-8.8c0-0.6,0.3-0.8,0.8-0.8h1.2c0.2,0,0.4,0.1,0.5,0.2c0.1,0.2,0.2,0.4,0.2,0.6v0.3c0,0-0.1,0.7,0.6,0.7
	h3.4c0,0,0.7,0.1,0.6-0.7v-2.8c0-0.4-0.1-0.7-0.4-1c-0.3-0.3-0.6-0.4-1-0.4h-6.8c-0.3,0-0.6,0.1-0.9,0.4c-0.3,0.2-0.4,0.5-0.5,0.8
	c0-0.3-0.1-0.6-0.4-0.8c-0.3-0.2-0.5-0.4-0.9-0.4h-1.9h0c0,0-0.7,0-0.7,0.7v1.5C165.1,15.4,165.1,16.2,165.8,16.3L165.8,16.3z"/>
</svg>
