<svg xmlns="http://www.w3.org/2000/svg" width="512" height="512" viewBox="0 0 512 512">
  <g id="favicon" transform="translate(-3242 -1981)">
    <rect id="Rectangle_33" data-name="Rectangle 33" width="512" height="512" rx="91" transform="translate(3242 1981)" fill="#2a5da8"/>
    <g id="Group_312" data-name="Group 312" transform="translate(-27.558 166.978)">
      <path id="Path_490" data-name="Path 490" d="M590.887,443.339H722.7l-50.449,53.138,61.522,58.14L854.591,430.035a25.3,25.3,0,0,0,6-17.841,31.827,31.827,0,0,0-9.844-24.073,33.61,33.61,0,0,0-25.531-11.38H590.887c-9.534,0-14.227,0-20.607,6.921s-6.155,17.3-6.155,26.3a40.153,40.153,0,0,0,7.692,27.07,20.384,20.384,0,0,0,18.92,6.306" transform="translate(2825.421 1544.323)" fill="#fff"/>
      <path id="Path_494" data-name="Path 494" d="M850.884,479.14h-153.8l23.838-23.763-60.679,3.075.846-61.522-93.437,97.128a28.845,28.845,0,0,0-6.921,18.457,33.3,33.3,0,0,0,9.767,23.072,31.531,31.531,0,0,0,23.841,10.228H848.808c9.3,0,17.226,0,23.685-6.306s6.925-17.535,6.925-26.839V501.288c-1-26.147-28.763-22.148-28.763-22.148" transform="translate(2803.595 1673.296)" fill="#fff"/>
      <path id="Path_496" data-name="Path 496" d="M546.35,450.858,547.424,322.2,674.7,443.321Z" transform="translate(2930.094 1670.838)" fill="#fff"/>
    </g>
  </g>
</svg>
